HIERARCHY
ROOT Hips
{
	OFFSET 0.000000 0.000000 0.000000
	CHANNELS 6 Xposition Yposition Zposition Zrotation Yrotation Xrotation 
	JOINT LHipJoint
	{
		OFFSET 0.000000 0.000000 0.000000
		CHANNELS 3 Zrotation Yrotation Xrotation
		JOINT LeftUpLeg
		{
			OFFSET 1.363060 -1.794630 0.839290
			CHANNELS 3 Zrotation Yrotation Xrotation
			JOINT LeftLeg
			{
				OFFSET 2.448110 -6.726130 0.000000
				CHANNELS 3 Zrotation Yrotation Xrotation
				JOINT LeftFoot
				{
					OFFSET 2.562200 -7.039590 0.000000
					CHANNELS 3 Zrotation Yrotation Xrotation
					JOINT LeftToeBase
					{
						OFFSET 0.157640 -0.433110 2.322550
						CHANNELS 3 Zrotation Yrotation Xrotation
						End Site
						{
							OFFSET 0.000000 0.000000 0.000000
						}
					}
				}
			}
		}
	}
	JOINT RHipJoint
	{
		OFFSET 0.000000 0.000000 0.000000
		CHANNELS 3 Zrotation Yrotation Xrotation
		JOINT RightUpLeg
		{
			OFFSET -1.305520 -1.794630 0.839290
			CHANNELS 3 Zrotation Yrotation Xrotation
			JOINT RightLeg
			{
				OFFSET -2.542530 -6.985550 0.000000
				CHANNELS 3 Zrotation Yrotation Xrotation
				JOINT RightFoot
				{
					OFFSET -2.568260 -7.056230 0.000000
					CHANNELS 3 Zrotation Yrotation Xrotation
					JOINT RightToeBase
					{
						OFFSET -0.164730 -0.452590 2.363150
						CHANNELS 3 Zrotation Yrotation Xrotation
						End Site
						{
							OFFSET 0.000000 0.000000 0.000000
						}
					}
				}
			}
		}
	}
	JOINT LowerBack
	{
		OFFSET 0.000000 0.000000 0.000000
		CHANNELS 3 Zrotation Yrotation Xrotation
		JOINT Spine
		{
			OFFSET 0.028270 2.035590 -0.193380
			CHANNELS 3 Zrotation Yrotation Xrotation
			JOINT Spine1
			{
				OFFSET 0.056720 2.048850 -0.042750
				CHANNELS 3 Zrotation Yrotation Xrotation
				JOINT Neck
				{
					OFFSET 0.000000 0.000000 0.000000
					CHANNELS 3 Zrotation Yrotation Xrotation
					JOINT Neck1
					{
						OFFSET -0.054170 1.746240 0.172020
						CHANNELS 3 Zrotation Yrotation Xrotation
						JOINT Head
						{
							OFFSET 0.104070 1.761360 -0.123970
							CHANNELS 3 Zrotation Yrotation Xrotation
							End Site
							{
								OFFSET 0.000000 0.000000 0.000000
							}
						}
					}
				}
				JOINT LeftShoulder
				{
					OFFSET 0.000000 0.000000 0.000000
					CHANNELS 3 Zrotation Yrotation Xrotation
					JOINT LeftArm
					{
						OFFSET 3.362410 1.200890 -0.311210
						CHANNELS 3 Zrotation Yrotation Xrotation
						JOINT LeftForeArm
						{
							OFFSET 4.983000 -0.000000 -0.000000
							CHANNELS 3 Zrotation Yrotation Xrotation
							JOINT LeftHand
							{
								OFFSET 3.483560 -0.000000 -0.000000
								CHANNELS 3 Zrotation Yrotation Xrotation
								JOINT LeftFingerBase
								{
									OFFSET 0.000000 0.000000 0.000000
									CHANNELS 3 Zrotation Yrotation Xrotation
									JOINT LeftHandIndex1
									{
										OFFSET 0.715260 -0.000000 -0.000000
										CHANNELS 3 Zrotation Yrotation Xrotation
										End Site
										{
											OFFSET 0.000000 0.000000 0.000000
										}
									}
								}
								JOINT LThumb
								{
									OFFSET 0.000000 0.000000 0.000000
									CHANNELS 3 Zrotation Yrotation Xrotation
									End Site
									{
										OFFSET 0.000000 0.000000 0.000000
									}
								}
							}
						}
					}
				}
				JOINT RightShoulder
				{
					OFFSET 0.000000 0.000000 0.000000
					CHANNELS 3 Zrotation Yrotation Xrotation
					JOINT RightArm
					{
						OFFSET -3.136600 1.374050 -0.404650
						CHANNELS 3 Zrotation Yrotation Xrotation
						JOINT RightForeArm
						{
							OFFSET -5.241900 -0.000000 -0.000000
							CHANNELS 3 Zrotation Yrotation Xrotation
							JOINT RightHand
							{
								OFFSET -3.444170 -0.000000 -0.000000
								CHANNELS 3 Zrotation Yrotation Xrotation
								JOINT RightFingerBase
								{
									OFFSET 0.000000 0.000000 0.000000
									CHANNELS 3 Zrotation Yrotation Xrotation
									JOINT RightHandIndex1
									{
										OFFSET -0.622530 -0.000000 -0.000000
										CHANNELS 3 Zrotation Yrotation Xrotation
										End Site
										{
											OFFSET 0.000000 0.000000 0.000000
										}
									}
								}
								JOINT RThumb
								{
									OFFSET 0.000000 0.000000 0.000000
									CHANNELS 3 Zrotation Yrotation Xrotation
									End Site
									{
										OFFSET 0.000000 0.000000 0.000000
									}
								}
							}
						}
					}
				}
			}
		}
	}
}
MOTION
Frames: 6
Frame Time: 0.008333
18.770493 17.636134 -0.989714 -86.747339 -87.185229 79.940352 7.450176 1.457664 0.365153 -24.986631 -17.911775 8.728438 -0.722679 7.515380 23.075613 -4.072159 20.185575 -19.996087 0.075500 -1.773000 -4.878600 -8.789218 -0.140357 -2.962873 33.832772 7.111638 12.616095 0.099412 -5.800011 16.995256 2.151351 -22.248657 -32.932262 -0.405500 4.087900 -11.324000 -1.313696 2.829701 6.666750 1.517338 3.803878 0.816083 -9.490405 2.190350 3.719984 6.496733 1.634624 -7.615044 8.655336 -0.209952 5.513700 -2.350600 -0.053000 2.334300 10.911619 2.638848 -2.164478 -84.189646 3.533886 52.403719 15.209366 -21.911800 -4.944532 -3.846013 -0.633864 11.477368 31.836818 -4.232295 -1.785700 -7.125000 0.000000 0.000000 6.797800 26.888500 -3.008300 -16.364913 -2.323383 5.670521 27.764389 60.895223 -8.222633 -46.990732 44.312557 -25.684239 0.754610 0.280382 -3.359759 -40.690543 9.075937 -7.587800 7.125000 0.000000 0.000000 -10.264900 -18.577600 -6.565800 
18.750774 17.633398 -0.967488 -78.564339 -86.683022 71.740976 7.465201 1.397527 0.318183 -24.588190 -17.923786 8.610783 -0.665721 7.561711 23.277174 -4.088722 20.066840 -19.545276 0.113600 -2.173300 -5.985000 -8.777089 -0.218593 -2.921001 34.239410 6.974893 12.824297 0.147864 -5.718214 16.720913 2.196021 -22.602345 -33.259964 -0.431300 4.214800 -11.681700 -1.372791 2.682984 6.595715 1.607077 3.607869 0.817832 -9.146631 2.034280 3.715656 6.589028 1.561272 -7.407391 8.854489 -0.355837 5.142861 -2.308100 -0.172700 2.084300 10.725047 2.773512 -2.185851 -84.278740 3.929342 51.447709 14.488767 -20.874816 -4.468186 -3.810480 -0.613773 11.204344 30.796146 -4.236250 -1.767700 -7.125000 0.000000 0.000000 5.981600 26.841100 -2.649800 -16.156902 -2.641795 5.858451 31.447405 59.581943 -4.472151 -48.772416 45.680413 -27.490844 0.722317 0.419152 -2.920381 -40.104915 9.725844 -7.815500 7.125000 0.000000 0.000000 -9.767800 -18.080600 -6.347000 
18.731625 17.631005 -0.932837 -69.366311 -86.509782 62.604790 7.462930 1.266674 0.264263 -24.763242 -18.128289 8.612476 -0.643379 7.591894 23.374077 -4.076747 19.971840 -19.326067 0.122200 -2.253900 -6.207900 -8.768340 -0.344911 -2.881430 34.023638 6.646070 12.809174 0.162207 -5.677549 16.593923 2.198918 -22.672724 -33.369251 -0.452400 4.314900 -11.964400 -1.663629 2.506000 6.403490 1.661125 3.368256 0.839250 -8.851466 1.863774 3.884377 6.424127 1.544549 -7.446359 9.094139 -0.409336 4.835114 -2.165700 -0.236700 1.930200 10.520761 2.915299 -2.202410 -84.461399 4.324988 50.154872 13.822917 -19.855698 -4.012503 -3.798557 -0.669062 11.121600 29.993332 -3.638574 -1.306300 -7.125000 0.000000 0.000000 5.404600 27.606800 -2.294200 -16.012846 -2.945418 5.992415 34.241501 58.422601 -0.702142 -51.003626 47.095378 -29.710900 0.718211 0.575798 -3.183707 -39.792414 10.007939 -7.803100 7.125000 0.000000 0.000000 -9.546000 -18.021300 -6.211400 
18.716123 17.628497 -0.898186 -64.108903 -86.589078 57.379942 7.447802 1.176333 0.229588 -25.147024 -18.225542 8.725096 -0.653615 7.581073 23.331024 -4.055164 19.916044 -19.288257 0.106100 -2.100600 -5.783700 -8.774275 -0.421749 -2.861490 33.654212 6.521334 12.748283 0.142777 -5.713205 16.717184 2.109476 -22.469379 -33.539894 -0.432200 4.218700 -11.692900 -2.137085 2.464039 6.209782 1.693073 3.289688 0.878166 -8.504742 1.785259 4.059957 6.225355 1.416193 -7.483857 9.266264 -0.584924 4.686536 -2.055400 -0.340700 1.846700 10.386183 3.075885 -2.229981 -84.622718 4.904133 48.859973 13.417309 -19.249877 -3.751799 -3.694200 -0.927146 10.547697 28.766871 -2.281342 -0.287500 -7.125000 0.000000 0.000000 4.453200 29.427400 -1.695300 -15.914182 -3.202129 6.079172 36.421900 57.441055 2.673310 -53.280939 48.372527 -31.989887 0.712563 0.732947 -3.223072 -39.218995 9.789484 -7.317100 7.125000 0.000000 0.000000 -9.223200 -18.628500 -5.870200 
18.701533 17.627015 -0.865815 -62.748228 -86.891175 56.008728 7.448284 1.141541 0.208838 -25.589266 -18.046388 8.833029 -0.676748 7.549599 23.213764 -4.066352 19.966193 -19.242535 0.108600 -2.124500 -5.849800 -8.765436 -0.450150 -2.851355 33.207750 6.563515 12.665414 0.101905 -5.795301 16.990854 2.029323 -22.251844 -33.627336 -0.421300 4.166000 -11.544300 -2.618964 2.531392 6.096712 1.671222 3.349998 0.900895 -8.293119 1.800472 4.129247 6.204935 1.362186 -7.527743 9.323648 -0.673862 4.558817 -2.030100 -0.401000 1.794100 10.355398 3.215635 -2.266706 -84.556771 5.616706 48.088744 13.256013 -18.995962 -3.537753 -3.928429 -1.118273 9.224831 30.314115 -1.393845 0.401800 -7.125000 0.000000 0.000000 5.925800 30.667800 -2.084400 -15.861030 -3.385906 6.119631 38.428360 56.671781 5.903471 -55.593136 49.556168 -34.331670 0.696606 0.849319 -3.016504 -38.265533 10.459142 -7.489100 7.125000 0.000000 0.000000 -8.476600 -18.106600 -5.482800 
18.691275 17.624622 -0.831392 -64.328052 -87.235444 57.499866 7.462784 1.149974 0.209204 -25.998948 -17.783695 8.940031 -0.690920 7.537417 23.159576 -4.018204 19.863103 -19.322087 0.092100 -1.957600 -5.388500 -8.742706 -0.444425 -2.862817 32.776781 6.591035 12.674347 0.067710 -5.838008 17.172607 2.037830 -22.210481 -33.503940 -0.449800 4.302800 -11.930100 -2.941449 2.603526 6.155987 1.629057 3.418978 0.911496 -8.247511 1.839304 4.091326 6.190222 1.257770 -7.531423 9.368499 -0.815850 4.536428 -2.001600 -0.471400 1.784800 10.314245 3.341945 -2.298216 -84.425228 6.222033 47.225054 13.057628 -18.715456 -3.394272 -3.884484 -1.340240 7.774006 29.855383 -0.704646 0.919100 -7.125000 0.000000 0.000000 5.589600 31.612400 -1.837900 -15.842905 -3.493626 6.142640 39.917698 56.305510 8.875141 -57.730030 50.505437 -36.452798 0.711550 0.922991 -2.828118 -38.436324 11.033852 -7.909500 7.125000 0.000000 0.000000 -8.533200 -17.489600 -5.637400 
